<svg xmlns="http://www.w3.org/2000/svg" width="58" height="50"><g fill="#E06035" fill-rule="nonzero"><path d="M35.616 35.714 46.345 21.43l10.798 14.285H50v3.572C50 45.195 45.195 50 39.286 50H17.857c-5.909 0-10.714-4.805-10.714-10.714v-3.572h7.143v3.572a3.577 3.577 0 0 0 3.571 3.571h21.429a3.577 3.577 0 0 0 3.571-3.571v-3.572h-7.24ZM21.527 14.286 10.798 28.57 0 14.286h7.143v-3.572C7.143 4.805 11.948 0 17.857 0h21.429C45.195 0 50 4.805 50 10.714v3.572h-7.143v-3.572a3.577 3.577 0 0 0-3.571-3.571H17.857a3.577 3.577 0 0 0-3.571 3.571v3.572h7.24Z"/></g></svg>
