<svg xmlns="http://www.w3.org/2000/svg" viewBox="0 0 58 50" width="58px" height="50px">
  <g id="Page-1" stroke="none" stroke-width="1" fill="none" fill-rule="evenodd">
    <g id="arrows" fill="#E06035" fill-rule="nonzero">
      <path d="M35.6160714,35.7142857 L46.3446429,21.4285714 L57.1428571,35.7142857 L50,35.7142857 L50,39.2857143 C50,45.1946429 45.1946429,50 39.2857143,50 L17.8571429,50 C11.9482143,50 7.14285714,45.1946429 7.14285714,39.2857143 L7.14285714,35.7142857 L14.2857143,35.7142857 L14.2857143,39.2857143 C14.2857143,41.2535714 15.8892857,42.8571429 17.8571429,42.8571429 L39.2857143,42.8571429 C41.2535714,42.8571429 42.8571429,41.2535714 42.8571429,39.2857143 L42.8571429,35.7142857 L35.6160714,35.7142857 Z" id="Path"></path>
      <path d="M21.5267857,14.2857143 L10.7982143,28.5714286 L0,14.2857143 L7.14285714,14.2857143 L7.14285714,10.7142857 C7.14285714,4.80535714 11.9482143,0 17.8571429,0 L39.2857143,0 C45.1946429,0 50,4.80535714 50,10.7142857 L50,14.2857143 L42.8571429,14.2857143 L42.8571429,10.7142857 C42.8571429,8.74642857 41.2535714,7.14285714 39.2857143,7.14285714 L17.8571429,7.14285714 C15.8892857,7.14285714 14.2857143,8.74642857 14.2857143,10.7142857 L14.2857143,14.2857143 L21.5267857,14.2857143 Z" id="Path"></path>
    </g>
  </g>
</svg>
