<svg width="478px" height="560px" viewBox="0 0 478 560" version="1.1" xmlns="http://www.w3.org/2000/svg" xmlns:xlink="http://www.w3.org/1999/xlink">
  <g id="Page-1" stroke="none" stroke-width="1" fill="none" fill-rule="evenodd">
    <g transform="translate(0.734060, 0.000004)" fill-rule="nonzero">
      <path d="M358.3274,440.120116 C358.1257,439.864276 357.925613,439.608053 357.72714,439.351446 C357.528667,439.094839 357.330903,438.837433 357.13385,438.579226 C356.93739,438.321286 356.741633,438.062563 356.54658,437.803056 C356.351527,437.543549 356.157433,437.282636 355.9643,437.020316 C355.640853,429.498983 355.636333,422.043983 355.95074,414.655316 C356.25786,407.319316 356.87863,400.071316 357.81305,392.911316 C358.73607,385.805136 359.95911,378.808663 361.48217,371.921896 C362.992837,365.087836 364.793503,358.382756 366.88417,351.806656 C367.122497,351.048656 367.36503,350.293553 367.61177,349.541346 C367.85851,348.789139 368.110013,348.041863 368.36628,347.299516 C368.62118,346.553676 368.880443,345.811159 369.14407,345.071966 C369.407697,344.332773 369.675237,343.596329 369.94669,342.862636 C371.960183,337.371476 374.17647,332.014809 376.59555,326.792636 C378.997703,321.606723 381.592277,316.564296 384.37927,311.665356 C387.14445,306.800589 390.09273,302.085829 393.22411,297.521076 C396.333037,292.990216 399.614987,288.617749 403.06996,284.403676 L403.61455,283.742476 L404.16072,283.085216 L404.70886,282.430976 L405.25859,281.780666 L405.65489,281.313836 L406.05489,280.848566 C406.18901,280.694186 406.323607,280.540369 406.45868,280.387116 C406.593753,280.233863 406.73102,280.082269 406.87048,279.932336 L407.19843,279.752746 L407.52465,279.574606 L407.84958,279.396986 L408.17318,279.219886 L408.1934,279.213306 L408.21388,279.203566 L408.23435,279.193826 L408.25496,279.186326 L408.38553,279.114876 L408.51426,279.042646 L408.64076,278.970556 L408.76411,278.898206 L409.32839,278.595576 L409.89071,278.297576 L410.45264,278.000466 L411.01036,277.700466 L410.58495,277.487166 L409.51595,276.955356 L409.5233,276.950886 C409.615247,276.990173 409.70629,277.031609 409.79643,277.075196 C409.88657,277.118783 409.97735,277.160836 410.06877,277.201356 C410.160643,277.244236 410.25116,277.286903 410.34032,277.329356 C410.42948,277.371809 410.519607,277.415393 410.6107,277.460106 L410.7137,277.504106 L410.81853,277.548896 L410.92428,277.594086 C410.959707,277.608141 410.993973,277.624963 411.02676,277.644396 C411.056181,277.660236 411.086973,277.673386 411.11876,277.683686 L411.21076,277.722986 L411.30276,277.762276 L411.39476,277.801576 C415.28876,279.586096 419.19291,281.397806 423.04634,283.297666 C426.89977,285.197526 430.69394,287.177546 434.38559,289.308426 C438.067023,291.423004 441.63475,293.72965 445.074,296.218816 C448.504043,298.695446 451.750359,301.417058 454.78751,304.362326 C457.992399,307.493578 460.858853,310.953423 463.33951,314.684696 C465.793197,318.350432 467.810952,322.289848 469.35188,326.423096 C470.834117,330.357624 471.71737,334.492355 471.97212,338.689096 C472.217528,342.725747 471.649693,346.770572 470.3023,350.583616 C470.1203,351.080763 469.923877,351.571013 469.71303,352.054366 C469.502183,352.537719 469.277427,353.013689 469.03876,353.482276 C468.800093,353.950863 468.54722,354.411196 468.28014,354.863276 C468.01306,355.315356 467.732767,355.759259 467.43926,356.194986 C467.31664,356.376753 467.191527,356.556736 467.06392,356.734936 C466.936313,356.913136 466.807127,357.089926 466.67636,357.265306 C466.544987,357.440439 466.412077,357.614916 466.27763,357.788736 C466.143183,357.962556 466.007163,358.134979 465.86957,358.306006 C463.319567,361.511776 460.078652,364.100417 456.38857,365.878836 C452.678416,367.651909 448.646398,368.651844 444.53769,368.817836 C440.219942,368.998235 435.9064,368.372147 431.81811,366.971656 C427.432997,365.474832 423.358383,363.189144 419.79511,360.227256 C418.563631,359.209361 417.39643,358.116111 416.30022,356.953796 C415.214345,355.802016 414.201096,354.583868 413.26633,353.306396 C412.339279,352.039935 411.493077,350.716231 410.73277,349.343176 C409.978371,347.980421 409.313213,346.57014 408.74149,345.121226 C408.472787,349.621867 409.171302,354.127852 410.79002,358.335906 C412.498029,362.759749 414.819912,366.921304 417.68741,370.698226 C420.715963,374.719747 424.076288,378.480326 427.73309,381.940466 C431.41409,385.470696 435.32549,388.779666 439.18766,391.827276 C443.04983,394.874886 447.04877,397.991786 450.92087,401.242646 C454.788762,404.43843 458.470711,407.852815 461.94868,411.469076 C465.322092,414.96231 468.305851,418.811836 470.8474,422.949846 C473.344488,427.034564 475.149659,431.503727 476.19001,436.176846 C477.30369,441.267157 477.247323,446.543866 476.02516,451.609226 C475.431001,454.073541 474.584807,456.470166 473.49995,458.761226 C472.406082,461.071013 471.095444,463.271759 469.58567,465.333856 L469.4442,465.522426 L469.30312,465.710086 L469.15888,465.897486 L469.01188,466.083716 C465.327736,470.899052 460.702709,474.914776 455.41802,477.886716 C452.757695,479.38194 449.953967,480.606284 447.04902,481.541326 C444.07515,482.49849 441.013428,483.157401 437.90909,483.508326 C432.003119,484.052513 426.048992,483.71165 420.24371,482.497016 C414.266116,481.245206 408.454826,479.300837 402.9275,476.703276 C397.21255,474.028473 391.749685,470.845216 386.60489,467.191956 C381.41478,463.518855 376.501029,459.470076 371.90317,455.078196 C370.68171,453.913963 369.48211,452.728266 368.30437,451.521106 C367.12663,450.313946 365.971583,449.086749 364.83923,447.839516 C363.705043,446.591516 362.596,445.324516 361.5121,444.038516 C360.4282,442.752516 359.366633,441.446383 358.3274,440.120116 Z" id="bfbd69ed-0a30-4239-a70d-8568b89194ba-1258" fill="#F2F2F2"></path>
      <path d="M453.27871,352.974106 C449.628733,351.079639 446.119253,348.925967 442.77725,346.529646 C436.101267,341.744484 430.137222,336.037232 425.06306,329.578176 C422.546828,326.373325 420.267804,322.989139 418.24414,319.452576 C416.555629,316.464895 415.056778,313.373932 413.75647,310.198006 C412.48703,307.09949 411.419668,303.921986 410.56109,300.685456 C409.722605,297.524154 409.097744,294.310023 408.69074,291.064836 C408.291514,287.886144 408.116366,284.683307 408.16659,281.480036 C408.171297,281.299369 408.175477,281.119913 408.17913,280.941666 C408.182783,280.763419 408.186967,280.583963 408.19168,280.403296 C408.196347,280.222629 408.203287,280.044349 408.2125,279.868456 L408.23883,279.335986 C408.08569,279.456866 407.932767,279.578929 407.78006,279.702176 L407.32338,280.073616 L406.86868,280.448066 L406.41582,280.823316 L406.12472,281.064316 L405.83283,281.307166 L405.54239,281.551716 L405.2551,281.796516 L405.651,281.330606 L406.05765,280.849706 C406.191763,280.695313 406.32636,280.541493 406.46144,280.388246 C406.59652,280.234999 406.733787,280.083409 406.87324,279.933476 L407.20118,279.753886 L407.52742,279.575746 L407.84563,279.398516 L408.16924,279.221426 L408.18945,279.214836 L408.20992,279.205096 L408.2304,279.195356 L408.251,279.187856 L408.38158,279.116416 L408.51123,279.044576 L408.63773,278.972486 L408.76108,278.900126 L409.32537,278.597506 L409.88769,278.299506 L410.44962,278.002396 L411.01195,277.704396 L410.57236,277.486116 L409.50373,276.953396 L409.51107,276.948926 C409.60303,276.988213 409.694073,277.029649 409.7842,277.073236 C409.874327,277.116823 409.965107,277.158873 410.05654,277.199386 C410.148407,277.242266 410.238923,277.284933 410.32809,277.327386 C410.417257,277.369839 410.50738,277.413423 410.59846,277.458136 L410.70146,277.502136 L410.80629,277.546926 L410.91204,277.592106 C410.947168,277.606008 410.981127,277.622702 411.01359,277.642026 L411.00405,277.811946 L410.99162,277.970836 L410.98273,278.129076 L410.97398,278.289536 C410.579681,283.68511 410.860729,289.108806 411.8106,294.434726 C412.787601,299.917063 414.391159,305.26902 416.58974,310.385346 C418.861401,315.681158 421.701257,320.714711 425.0594,325.397546 C428.529086,330.241623 432.504449,334.702684 436.91833,338.705366 C441.361213,342.678406 446.207596,346.175691 451.37833,349.140106 C453.932101,350.603491 456.561714,351.930356 459.25608,353.115106 C461.927643,354.287969 464.660893,355.314972 467.44377,356.191586 C467.321157,356.373366 467.196043,356.553349 467.06843,356.731536 C466.940817,356.909723 466.81163,357.086516 466.68087,357.261916 C466.549503,357.437049 466.416593,357.611526 466.28214,357.785346 C466.147687,357.959166 466.011667,358.131589 465.87408,358.302616 C464.800827,357.946983 463.73324,357.568763 462.67132,357.167956 C461.6094,356.767149 460.552883,356.344359 459.50177,355.899586 C458.450657,355.454813 457.406743,354.988109 456.37003,354.499476 C455.333317,354.010843 454.302877,353.502386 453.27871,352.974106 Z" id="a2347809-d406-465d-97ee-6d57ebf46a78-1259" fill="#FFFFFF"></path>
      <path d="M381.02872,393.299216 C379.833727,391.514843 378.705727,389.697483 377.64472,387.847136 C376.583713,385.996789 375.592267,384.120319 374.67038,382.217726 C373.74846,380.315146 372.89693,378.388629 372.11579,376.438176 C371.33465,374.487723 370.627167,372.520169 369.99334,370.535516 C369.66952,369.482969 369.370853,368.426673 369.09734,367.366626 C368.823827,366.306579 368.576073,365.244843 368.35408,364.181416 C368.13208,363.117996 367.935003,362.052176 367.76285,360.983956 C367.590697,359.915736 367.445363,358.848463 367.32685,357.782136 C367.266603,357.285156 367.212577,356.787213 367.16477,356.288306 C367.116963,355.789399 367.0744,355.290919 367.03708,354.792866 C367.000033,354.294199 366.968543,353.796103 366.94261,353.298576 C366.916677,352.801049 366.895867,352.304249 366.88018,351.808176 C367.118507,351.050176 367.36104,350.295076 367.60778,349.542876 C367.85452,348.790676 368.105327,348.041649 368.3602,347.295796 C368.61508,346.549956 368.874343,345.807439 369.13799,345.068246 C369.401637,344.329053 369.669917,343.592563 369.94283,342.858776 C369.883183,343.473443 369.832297,344.089676 369.79017,344.707476 C369.748043,345.325276 369.714537,345.944943 369.68965,346.566476 C369.66477,347.188016 369.648647,347.811126 369.64128,348.435806 C369.633913,349.060486 369.63512,349.686293 369.6449,350.313226 C369.643867,350.654979 369.646867,350.996646 369.6539,351.338226 C369.660933,351.679806 369.670057,352.021539 369.68127,352.363426 C369.693383,352.704986 369.708333,353.046673 369.72612,353.388486 C369.743907,353.730299 369.76424,354.072113 369.78712,354.413926 C370.049852,358.248338 370.651378,362.051979 371.58466,365.780346 C372.529957,369.553874 373.762992,373.249426 375.27294,376.834556 C376.811588,380.488591 378.586105,384.038757 380.58527,387.462606 C382.618151,390.946509 384.841122,394.315958 387.24411,397.555686 C389.83055,401.053226 392.564397,404.458603 395.44565,407.771816 C398.326903,411.085029 401.31757,414.307609 404.41765,417.439556 C407.520523,420.568343 410.71437,423.600439 413.99919,426.535846 C417.28401,429.471253 420.623827,432.305089 424.01864,435.037356 C427.494593,437.842729 431.04107,440.541576 434.65807,443.133896 C438.27507,445.726216 441.950817,448.204809 445.68531,450.569676 C449.418583,452.934009 453.207967,455.183126 457.05346,457.317026 C460.898953,459.450926 464.787913,461.462756 468.72034,463.352516 C468.900941,463.440843 469.063936,463.561337 469.20134,463.708096 C469.335721,463.851726 469.44445,464.017358 469.52279,464.197776 C469.600618,464.375936 469.646601,464.566363 469.65865,464.760406 C469.670809,464.955698 469.645121,465.151499 469.583,465.337046 C469.562813,465.41722 469.534611,465.495159 469.49882,465.569686 C469.46402,465.642162 469.421901,465.710889 469.37312,465.774796 C469.324826,465.838232 469.270058,465.896466 469.2097,465.948556 C469.149149,465.999868 469.083359,466.044655 469.01342,466.082176 C468.939807,466.115849 468.862227,466.140069 468.78253,466.154256 C468.702511,466.169391 468.621074,466.172615 468.54002,466.166996 C468.45726,466.161511 468.375439,466.146262 468.29626,466.121566 C468.214203,466.097144 468.135217,466.063394 468.06085,466.020976 C467.574677,465.787869 467.088893,465.553846 466.6035,465.318906 C466.118107,465.083966 465.633677,464.847633 465.15021,464.609906 C464.66613,464.371906 464.182967,464.131746 463.70072,463.889426 C463.218473,463.647106 462.736617,463.401346 462.25515,463.152146 C458.24715,461.093099 454.29257,458.910766 450.39141,456.605146 C446.49025,454.299526 442.64771,451.873639 438.86379,449.327486 C435.081123,446.781826 431.36688,444.121853 427.72106,441.347566 C424.07524,438.573279 420.506283,435.688663 417.01419,432.693716 C413.64079,429.810376 410.31127,426.829416 407.06082,423.747396 C403.81037,420.665376 400.64136,417.484396 397.59082,414.201796 C394.54028,410.919196 391.61053,407.537046 388.8355,404.052446 C386.06047,400.567846 383.448,396.985226 381.02872,393.299216 Z" id="fd435d97-ab67-4bbc-9247-61e184ba81ed-1260" fill="#FFFFFF"></path>
      <path d="M456.53479,106.883966 L453.66379,107.256966 L472.91379,35.0079661 C474.332248,30.1836198 474.563142,25.087823 473.58679,20.1549661 C472.739845,16.1243812 470.645104,12.4628696 467.59979,9.68996615 C464.41003,6.91744814 460.501347,5.10333387 456.32479,4.45696615 C451.237841,3.66919382 446.044976,3.90171017 441.04879,5.14096615 L441.04879,5.14096615 L310.22079,34.9349661 C305.654445,36.0428459 301.283834,37.8408627 297.25979,40.2669661 C292.88328,42.8694386 288.813076,45.9554678 285.12579,49.4669661 C281.332251,53.0477111 277.927071,57.0186888 274.96679,61.3139661 C272.075189,65.4714462 269.718021,69.9761374 267.95079,74.7219661 L267.95079,74.7219661 L131.06579,451.220966 C128.790163,457.411723 127.31162,463.866909 126.66579,470.430966 C126.066787,476.258404 126.349631,482.142845 127.50479,487.885966 C128.468974,492.876038 130.482805,497.604177 133.41279,501.756966 C136.099965,505.532895 139.885896,508.38858 144.25479,509.934966 L144.25479,509.934966 L282.48279,557.520966 C288.623214,559.611918 295.214615,560.004424 301.55979,558.656966 C308.342829,557.179371 314.722464,554.241565 320.25479,550.047966 C326.467216,545.380134 331.809408,539.6551 336.03679,533.134966 C340.718733,525.971188 344.217138,518.100537 346.39779,509.824966 L346.39779,509.824966 L439.06979,162.016966 L441.97779,161.783966 L456.53479,106.883966 Z" id="e3ba7b84-95ab-4be0-b084-77760c6da15d-1261" fill="#2F2E41"></path>
      <path d="M446.53479,102.883966 L443.66379,103.256966 L462.91379,31.0079661 C464.332248,26.1836198 464.563142,21.087823 463.58679,16.1549661 C462.739845,12.1243812 460.645104,8.46286956 457.59979,5.68996615 C454.41003,2.91744814 450.501347,1.10333387 446.32479,0.456966146 C441.237841,-0.330806182 436.044976,-0.0982898314 431.04879,1.14096615 L431.04879,1.14096615 L300.22079,30.9349661 C295.654445,32.0428459 291.283834,33.8408627 287.25979,36.2669661 C282.88328,38.8694386 278.813076,41.9554678 275.12579,45.4669661 C271.332251,49.0477111 267.927071,53.0186888 264.96679,57.3139661 C262.075189,61.4714462 259.718021,65.9761374 257.95079,70.7219661 L257.95079,70.7219661 L121.06579,447.220966 C118.790163,453.411723 117.31162,459.866909 116.66579,466.430966 C116.066787,472.258404 116.349631,478.142845 117.50479,483.885966 C118.468974,488.876038 120.482805,493.604177 123.41279,497.756966 C126.099965,501.532895 129.885896,504.38858 134.25479,505.934966 L134.25479,505.934966 L272.48279,553.520966 C278.623214,555.611918 285.214615,556.004424 291.55979,554.656966 C298.342829,553.179371 304.722464,550.241565 310.25479,546.047966 C316.467216,541.380134 321.809408,535.6551 326.03679,529.134966 C330.718733,521.971188 334.217138,514.100537 336.39779,505.824966 L336.39779,505.824966 L429.06979,158.016966 L431.97779,157.783966 L446.53479,102.883966 Z" id="b5993d63-c6a8-428b-8f96-914fd0c3ef98-1262" fill="#3F3D56"></path>
      <path d="M429.89177,10.5679661 L410.66077,14.7809661 C410.870811,16.4448298 410.705079,18.1346171 410.17577,19.7259661 C409.57659,21.5873265 408.707679,23.3507552 407.59677,24.9599661 C405.096032,28.6132339 401.758744,31.6162441 397.86277,33.7189661 C397.396103,33.9669661 396.931103,34.1959661 396.46777,34.4059661 C396.004437,34.6159661 395.541103,34.8066328 395.07777,34.9779661 C394.616437,35.1492995 394.158103,35.3006328 393.70277,35.4319661 C393.247437,35.5632995 392.797437,35.6739661 392.35277,35.7639661 L317.16277,50.9889661 C315.767712,51.3131078 314.315123,51.296644 312.92777,50.9409661 C311.81066,50.6411958 310.825378,49.9775381 310.12777,49.0549661 C309.424473,48.064366 309.027394,46.8891256 308.98577,45.6749661 C308.928063,44.1261782 309.172968,42.5810021 309.70677,41.1259661 C309.840103,40.7332995 309.992103,40.3379661 310.16277,39.9399661 C310.333437,39.5419661 310.519437,39.1439661 310.72077,38.7459661 C310.92077,38.3459661 311.139103,37.9479661 311.37577,37.5519661 C311.612437,37.1559661 311.862103,36.7602995 312.12477,36.3649661 L297.88777,39.4839661 C294.458898,40.2880741 291.174834,41.6170812 288.15177,43.4239661 C284.848381,45.3699056 281.776696,47.6847408 278.99577,50.3239661 C276.129059,53.0203737 273.557874,56.0146151 271.32577,59.2559661 C269.14939,62.3881379 267.380197,65.7843852 266.06077,69.3629661 L129.43277,449.133966 C127.733461,453.800528 126.64248,458.666586 126.18677,463.611966 C125.76538,467.977418 126.013919,472.381638 126.92377,476.671966 C127.68123,480.380104 129.228669,483.881537 131.46077,486.937966 C133.506531,489.710563 136.35893,491.783416 139.62777,492.872966 L139.62777,492.872966 L278.87277,538.110966 C283.466982,539.58404 288.371155,539.803945 293.07877,538.747966 C298.09226,537.600146 302.80141,535.390836 306.88877,532.268966 C311.46045,528.807048 315.396249,524.577553 318.52077,519.768966 C321.978332,514.487108 324.573128,508.688565 326.20777,502.590966 L326.20777,502.590966 L453.43377,33.1089661 C454.501359,29.5251691 454.699161,25.7384887 454.01077,22.0629661 C453.413057,19.0509163 451.889859,16.3006304 449.65377,14.1959661 C447.310246,12.0917431 444.416754,10.6971932 441.31077,10.1749661 C437.516664,9.53785738 433.633097,9.67151547 429.89177,10.5679661 L429.89177,10.5679661 Z" id="f76bb9a3-d246-4a39-a954-55c4fdcd575d-1263" fill="#FFFFFF"></path>
      <polygon id="Path" fill="#FFFFFF" points="355.21713 190.432116 78.22138 190.432116 78.22138 96.5664461 355.21713 96.5664461"></polygon>
      <rect id="Rectangle" fill="#FFFFFF" x="2.76078" y="223.561196" width="271.47423" height="131.59598"></rect>
      <circle id="Oval" fill="#E06035" cx="46.86316" cy="267.116886" r="19.63676"></circle>
      <path d="M92.21469,254.025716 C90.407178,254.025716 88.9419,255.490994 88.9419,257.298506 C88.9419,259.106018 90.407178,260.571296 92.21469,260.571296 L246.5035,260.571296 C248.307853,260.566836 249.76821,259.102865 249.76821,257.298506 C249.76821,255.494147 248.307853,254.030177 246.5035,254.025716 L92.21469,254.025716 Z" id="Path" fill="#E6E6E6"></path>
      <path d="M92.21469,273.662407 C91.0444337,273.658449 89.9611083,274.279627 89.3734052,275.291615 C88.785702,276.303604 88.7830673,277.552383 89.366495,278.566842 C89.9499227,279.581302 91.0306173,280.207045 92.20088,280.208006 L158.60563,280.208006 C159.774885,280.208006 160.855322,279.584216 161.43995,278.571611 C162.024577,277.559006 162.024577,276.311426 161.43995,275.298821 C160.855322,274.286216 159.774885,273.662407 158.60563,273.662407 L92.21469,273.662407 Z" id="Path" fill="#E6E6E6"></path>
      <path d="M31.80124,305.055956 C29.3117,305.055956 27.2858,306.524296 27.2858,308.328756 C27.2858,310.133216 29.3117,311.601536 31.80124,311.601536 L244.6723,311.601536 C247.16187,311.601536 249.18774,310.133166 249.18774,308.328756 C249.18774,306.524346 247.16181,305.055956 244.6723,305.055956 L31.80124,305.055956 Z" id="Path" fill="#E6E6E6"></path>
      <path d="M31.80124,324.692696 C29.3117,324.692696 27.2858,326.161006 27.2858,327.965476 C27.2858,329.769946 29.3117,331.238246 31.80124,331.238246 L195.6723,331.238246 C198.16187,331.238246 200.18774,329.769886 200.18774,327.965476 C200.18774,326.161066 198.16181,324.692696 195.6723,324.692696 L31.80124,324.692696 Z" id="Path" fill="#E6E6E6"></path>
      <path d="M276.99574,357.917916 L-5.68434189e-14,357.917916 L-5.68434189e-14,220.800416 L276.99574,220.800416 L276.99574,357.917916 Z M5.52151,352.396406 L271.47423,352.396406 L271.47423,226.321926 L5.52151,226.321926 L5.52151,352.396406 Z" id="Shape" fill="#E6E6E6"></path>
      <circle id="Oval" fill="#E06035" cx="125.08455" cy="142.882916" r="19.63676"></circle>
      <path d="M170.43608,129.791746 C168.628568,129.791746 167.16329,131.257024 167.16329,133.064536 C167.16329,134.872048 168.628568,136.337326 170.43608,136.337326 L324.72489,136.337326 C326.529243,136.332866 327.9896,134.868895 327.9896,133.064536 C327.9896,131.260177 326.529243,129.796207 324.72489,129.791746 L170.43608,129.791746 Z" id="Path" fill="#E6E6E6"></path>
      <path d="M170.43608,149.428437 C169.265824,149.424479 168.182498,150.045657 167.594795,151.057645 C167.007092,152.069634 167.004457,153.318413 167.587885,154.332872 C168.171313,155.347332 169.252007,155.973075 170.42227,155.974036 L291.82702,155.974036 C293.634532,155.974036 295.09981,154.508758 295.09981,152.701246 C295.09981,150.893734 293.634532,149.428437 291.82702,149.428437 L170.43608,149.428437 Z" id="Path" fill="#E6E6E6"></path>
      <path d="M355.21713,190.432116 L78.22138,190.432116 L78.22138,96.5664461 L355.21713,96.5664461 L355.21713,190.432116 Z M83.74289,184.910606 L349.69563,184.910606 L349.69563,102.087956 L83.74289,102.087956 L83.74289,184.910606 Z" id="Shape" fill="#E6E6E6"></path>
      <path d="M460.31231,257.458396 C461.114248,257.427446 461.913855,257.563665 462.66031,257.858396 C463.369056,258.142256 464.011491,258.569525 464.54731,259.113396 C465.085312,259.660594 465.505308,260.312369 465.78131,261.028396 C466.072468,261.787471 466.205192,262.598103 466.17131,263.410396 C466.138983,264.243789 465.945057,265.062964 465.60031,265.822396 C465.263769,266.5673 464.794838,267.244947 464.21631,267.822396 C463.641955,268.396969 462.967577,268.861917 462.22631,269.194396 C461.473777,269.532166 460.661858,269.717728 459.83731,269.740396 C459.034552,269.764602 458.235561,269.62122 457.49131,269.319396 C456.785955,269.031181 456.14765,268.600538 455.61631,268.054396 C455.083316,267.505548 454.66815,266.853533 454.39631,266.138396 C454.11015,265.382014 453.980861,264.575322 454.01631,263.767396 C454.049599,262.938211 454.242807,262.123272 454.58531,261.367396 C454.920132,260.629825 455.38486,259.958474 455.95731,259.385396 C456.527457,258.811917 457.19698,258.346707 457.93331,258.012396 C458.682247,257.673331 459.490629,257.485082 460.31231,257.458396 Z" id="ecbdc040-0b9a-4be9-8952-5ef77de340c4-1264" fill="#F2F2F2"></path>
    </g>
  </g>
</svg>
