<svg xmlns="http://www.w3.org/2000/svg" width="45" height="50"><g fill="#E06035" fill-rule="nonzero"><path d="M44.51 4.412 40.49.392C40.196.098 40 0 39.608 0s-.686.098-.98.392l-23.53 23.53c-.098.098-.196.294-.294.49l-2.55 6.568c-.391.883.295 1.863 1.177 1.863.196 0 .294 0 .49-.098l6.667-2.647c.196-.098.294-.196.392-.294l23.53-23.53c.49-.49.49-1.372 0-1.862ZM19.314 27.745l-3.53 1.373 1.373-3.53 22.45-22.353 2.158 2.157-22.451 22.353Z"/><path d="M34.02 23.333c-1.177 0-2.157.98-2.157 2.157v20.294H4.216V7.745h21.176c1.177 0 2.157-.882 2.157-2.059 0-1.176-.98-2.157-2.157-2.157H2.06C.882 3.53 0 4.51 0 5.686v42.157C0 49.02.882 50 2.059 50h31.96c1.177 0 2.06-.98 2.06-2.157V25.49c0-1.176-.883-2.157-2.06-2.157Z"/></g></svg>
