<svg xmlns="http://www.w3.org/2000/svg" width="64" height="50"><path fill="#9164ff" fill-rule="nonzero" d="M33.25 24.074a10.57 10.57 0 0 0-1.662-.149c-3.637 0-7.27 1.646-9.22 5.022-2.907 5.035-1.086 11.712 3.948 14.617 1.658.958 3.477 1.173 5.263 1.173 3.637 0 7.262-1.887 9.21-5.263 2.2-3.81 1.647-8.183-.888-11.462l3.52-13.538-10.171 9.6Zm2.886 13.008c-.937 1.623-2.678 2.392-4.557 2.392-.928 0-1.818.002-2.63-.467a5.267 5.267 0 0 1-1.927-7.187 5.285 5.285 0 0 1 4.567-2.633c.927 0 1.808.238 2.62.706a5.269 5.269 0 0 1 1.927 7.189ZM31.579 0C14.139 0 0 15.043 0 32.895 0 39.42 1.896 44.92 5.146 50h13.275v-5.263H7.895c-1.904-3.788-2.632-7.538-2.632-11.842 0-14.853 11.805-27.632 26.316-27.632 14.51 0 26.316 12.78 26.316 27.632 0 4.304-.728 8.054-2.632 11.842H44.737V50h13.158c3.25-5.08 5.263-10.579 5.263-17.105C63.158 15.043 49.02 0 31.578 0Z"/></svg>
